#tb 0: 1/25
0,          0,          0,        1,   149760, 0x8ce7200b
0,          1,          1,        1,   149760, 0x85340cda
0,          2,          2,        1,   149760, 0x16fd1f91
0,          3,          3,        1,   149760, 0x7d8d312d
0,          4,          4,        1,   149760, 0xae6ed875
0,          5,          5,        1,   149760, 0xccac730a
0,          6,          6,        1,   149760, 0x3d321c3f
0,          7,          7,        1,   149760, 0x18e05688
0,          8,          8,        1,   149760, 0x23fec4de
0,          9,          9,        1,   149760, 0x3e0de0ca
0,         10,         10,        1,   149760, 0x4789e861
0,         11,         11,        1,   149760, 0x34550f71
0,         12,         12,        1,   149760, 0xb0b1b4a7
0,         13,         13,        1,   149760, 0xb9b8967e
0,         14,         14,        1,   149760, 0x92e7f3c5
0,         15,         15,        1,   149760, 0x61c0f62e
0,         16,         16,        1,   149760, 0x819648c5
0,         17,         17,        1,   149760, 0xe0286f95
0,         18,         18,        1,   149760, 0xc2d85311
0,         19,         19,        1,   149760, 0xbb07ec4e
0,         20,         20,        1,   149760, 0xe073f10b
0,         21,         21,        1,   149760, 0xd2e8c52f
0,         22,         22,        1,   149760, 0x12020583
0,         23,         23,        1,   149760, 0x0dfecaba
0,         24,         24,        1,   149760, 0xe35f8ee5
0,         25,         25,        1,   149760, 0x267bbf14
0,         26,         26,        1,   149760, 0x371037a8
0,         27,         27,        1,   149760, 0x3d188434
0,         28,         28,        1,   149760, 0xce81fd31
0,         29,         29,        1,   149760, 0xfbbf2801
0,         30,         30,        1,   149760, 0x9af9d1b6
0,         31,         31,        1,   149760, 0x14e2feea
0,         32,         32,        1,   149760, 0x83f04b3a
0,         33,         33,        1,   149760, 0xfc30687f
0,         34,         34,        1,   149760, 0xaec2be07
0,         35,         35,        1,   149760, 0xc7da6926
0,         36,         36,        1,   149760, 0x50d20e8e
0,         37,         37,        1,   149760, 0xd0fa63e9
0,         38,         38,        1,   149760, 0x9d15906a
0,         39,         39,        1,   149760, 0x4c685317
